<svg width="16" height="15" viewBox="0 0 16 15" fill="none" xmlns="http://www.w3.org/2000/svg">
<path d="M9.98406 8.14353H6.64006C6.30406 8.14353 6.11205 7.90353 6.11205 7.55153C6.11205 7.21553 6.28805 6.99153 6.57606 6.99153H9.98406V3.39153H8.27205C7.88805 4.27153 7.44005 5.07153 6.96005 5.74353C6.84805 5.91953 6.67206 6.01553 6.48005 6.01553C6.35206 6.01553 6.20806 5.96753 6.06405 5.87153C5.90406 5.75953 5.84005 5.59953 5.84005 5.45553C5.84005 5.32753 5.88805 5.18353 5.96805 5.07153C6.88005 3.83953 7.64806 2.09553 8.08006 0.41553C8.16006 0.127531 8.35206 -0.000469208 8.60806 -0.000469208C8.67206 -0.000469208 8.73606 0.0155306 8.81606 0.0315304C9.12006 0.0955305 9.28006 0.27153 9.28006 0.527531C9.28006 0.575531 9.28006 0.62353 9.26406 0.687531C9.12006 1.21553 8.94406 1.74353 8.73606 2.27153H14.2081C14.4961 2.27153 14.6561 2.46353 14.6561 2.81553C14.6561 3.13553 14.4961 3.39153 14.2081 3.39153H11.2001V6.99153H14.5601C14.8641 6.99153 15.0241 7.19953 15.0241 7.55153C15.0241 7.88753 14.8641 8.14353 14.5601 8.14353H11.2001V14.4155C11.2001 14.7035 10.9601 14.8635 10.5921 14.8635C10.2081 14.8635 9.98406 14.7035 9.98406 14.4155V8.14353ZM0.432055 2.73553H5.53606C5.80805 2.73553 5.96805 2.95953 5.96805 3.27953C5.96805 3.59953 5.80805 3.82353 5.53606 3.82353H0.432055C0.144055 3.82353 5.47171e-05 3.59953 5.47171e-05 3.27953C5.47171e-05 2.95953 0.144055 2.73553 0.432055 2.73553ZM5.13605 6.12753H0.944055C0.672055 6.12753 0.544055 5.88753 0.544055 5.59953C0.544055 5.31153 0.672055 5.07153 0.944055 5.07153H5.13605C5.39206 5.07153 5.53606 5.31153 5.53606 5.59953C5.53606 5.87153 5.39206 6.12753 5.13605 6.12753ZM0.992055 0.41553H5.16806C5.44005 0.41553 5.58405 0.62353 5.58405 0.943531C5.58405 1.24753 5.44005 1.47153 5.16806 1.47153H0.992055C0.736055 1.47153 0.576055 1.24753 0.576055 0.943531C0.576055 0.62353 0.736055 0.41553 0.992055 0.41553ZM5.60005 10.8315V13.3275C5.60005 14.1435 5.21605 14.4795 4.36805 14.4795H1.84005C1.00805 14.4795 0.624055 14.1435 0.624055 13.3275V10.8315C0.624055 10.0155 1.00805 9.67953 1.84005 9.67953H4.36805C5.21605 9.67953 5.60005 10.0155 5.60005 10.8315ZM4.04805 10.6395H2.17605C1.88805 10.6395 1.74405 10.7355 1.74405 11.0235V13.0875C1.74405 13.3915 1.88805 13.4715 2.17605 13.4715H4.04805C4.33605 13.4715 4.48005 13.3915 4.48005 13.0875V11.0235C4.48005 10.7355 4.33605 10.6395 4.04805 10.6395ZM5.15205 8.44753H0.992055C0.720055 8.44753 0.592055 8.20753 0.592055 7.91953C0.592055 7.63153 0.720055 7.39153 0.992055 7.39153H5.15205C5.42406 7.39153 5.56806 7.63153 5.56806 7.91953C5.56806 8.19153 5.42406 8.44753 5.15205 8.44753Z" fill="black"/>
</svg>
